<svg width="100%" height="100%" viewBox="0 0 199 90" version="1.1" xmlns="http://www.w3.org/2000/svg" xmlns:xlink="http://www.w3.org/1999/xlink" xml:space="preserve" style="fill-rule:evenodd;clip-rule:evenodd;stroke-linejoin:round;stroke-miterlimit:1.41421;"><g><path d="M127.848,62.858c-0.225,-1.357 -1.452,-2.739 -3.038,-2.739c-1.978,0 -3.712,1.083 -3.712,3.896c0,2.625 2.096,4.168 3.921,4.168c1.377,0 2.708,-0.696 3.247,-1.506l0.359,0.125c-0.837,1.245 -2.335,2.128 -4.235,2.128c-2.71,0 -4.938,-1.854 -4.938,-4.268c0,-3.161 2.245,-4.992 4.983,-4.992c0.524,0 0.974,0.062 1.393,0.138c0.657,0.138 1.167,0.298 1.51,0.298c0.299,0 0.571,-0.036 0.734,-0.087c0,0.113 -0.045,0.224 -0.045,0.424c0,0.348 0.061,1.729 0.18,2.415l-0.359,0Z" style="fill:#065b4a;fill-rule:nonzero;"/><path d="M135.062,68.93c3.129,0 5.356,-1.891 5.356,-4.629c0,-2.564 -2.242,-4.631 -5.356,-4.631c-3.112,0 -5.359,2.067 -5.359,4.631c0,2.738 2.232,4.629 5.359,4.629ZM135.482,68.259c-2.575,0 -4.131,-2.327 -4.131,-4.332c0,-2.725 2.094,-3.808 3.456,-3.808c2.874,0 3.967,2.328 3.967,4.021c0,3.135 -1.616,4.119 -3.292,4.119Z" style="fill:#065b4a;fill-rule:nonzero;"/><path d="M142.74,60.891c0,-0.648 -0.165,-0.772 -0.838,-0.772l-0.358,0l0,-0.298c0.673,0.036 1.376,0.062 2.003,0.062c0.63,0 1.331,-0.026 1.916,-0.062l0,0.298l-0.358,0c-0.676,0 -0.838,0.124 -0.838,0.772l0,4.691c0,1.594 0.928,2.601 2.902,2.601c1.631,0 2.845,-0.609 2.845,-2.251l0,-5.116c0,-0.461 -0.105,-0.697 -0.809,-0.697l-0.419,0l0,-0.298c0.585,0.036 1.107,0.062 1.662,0.062c0.523,0 1.004,-0.026 1.436,-0.062l0,0.298l-0.344,0c-0.705,0 -0.809,0.236 -0.809,0.697l0,4.766c0,2.191 -1.001,3.348 -4.414,3.348c-2.442,0 -3.577,-0.97 -3.577,-3.036l0,-5.003Z" style="fill:#065b4a;fill-rule:nonzero;"/><path d="M153.935,60.791l-0.447,-0.41c-0.211,-0.187 -0.316,-0.262 -0.585,-0.262l-0.346,0l0,-0.298c0.419,0.025 0.824,0.062 1.244,0.062c0.418,0 0.838,-0.037 1.257,-0.062l6.375,6.584l0.03,0l0,-5.589c0,-0.461 -0.104,-0.697 -0.807,-0.697l-0.42,0l0,-0.298c0.524,0.036 1.048,0.062 1.542,0.062c0.495,0 1.016,-0.026 1.541,-0.062l0,0.298l-0.419,0c-0.704,0 -0.81,0.236 -0.81,0.697l0,7.741c0,0.236 0,0.373 -0.073,0.373c-0.075,0 -0.164,-0.074 -0.645,-0.573l-6.779,-6.944l-0.03,0l0,6.372c0,0.461 0.105,0.698 0.808,0.698l0.419,0l0,0.298c-0.524,-0.038 -1.047,-0.061 -1.542,-0.061c-0.493,0 -1.017,0.023 -1.542,0.061l0,-0.298l0.419,0c0.705,0 0.81,-0.237 0.81,-0.698l0,-6.994Z" style="fill:#065b4a;fill-rule:nonzero;"/><path d="M166.476,68.483l0.36,0c0.673,0.012 0.869,-0.126 0.838,-0.773l0,-7.292l-1.242,0c-1.827,0 -2.334,0.957 -2.334,1.767l-0.361,0c0.135,-0.747 0.179,-1.804 0.21,-2.364c1.334,0.062 2.979,0.062 4.491,0.062c1.467,0 3.023,0 4.487,-0.062c-0.087,0.758 -0.117,1.368 -0.117,1.816c0,0.188 0.016,0.362 0.03,0.548l-0.389,0l0,-0.273c0,-1.146 -0.614,-1.494 -1.961,-1.494l-1.288,0l0,7.292c-0.03,0.647 0.165,0.785 0.838,0.773l0.358,0l0,0.298c-0.672,-0.038 -1.375,-0.061 -1.899,-0.061c-0.643,0 -1.346,0.023 -2.021,0.061l0,-0.298Z" style="fill:#065b4a;fill-rule:nonzero;"/><path d="M176.444,68.483l0.569,0c0.676,0 0.838,-0.126 0.838,-0.773l0,-2.863l-3.04,-3.758c-0.448,-0.56 -0.881,-0.97 -1.63,-0.97l0,-0.298c0.657,0.036 1.332,0.062 2.007,0.062c0.717,0 1.451,-0.026 2.169,-0.062l0,0.298c-0.359,0 -1.019,0.037 -1.019,0.449c0,0.162 0.182,0.372 0.913,1.357l1.724,2.302l2.184,-2.765c0.328,-0.422 0.539,-0.682 0.539,-0.907c0,-0.436 -0.748,-0.436 -1.108,-0.436l0,-0.298c0.583,0.036 1.152,0.062 1.736,0.062c0.463,0 0.943,-0.026 1.392,-0.062l0,0.298c-0.689,0 -1.107,0.436 -1.601,1.057l-2.74,3.386l0,3.148c0,0.647 0.166,0.773 0.84,0.773l0.568,0l0,0.298c-0.597,-0.038 -1.257,-0.061 -2.245,-0.061c-0.673,0 -1.392,0.023 -2.096,0.061l0,-0.298Z" style="fill:#065b4a;fill-rule:nonzero;"/><path d="M62.008,48.224c-0.451,0 -0.881,-0.058 -1.301,-0.141c-4.181,-1.977 -6.391,-8.145 -6.391,-12.83c0,-8.851 5.598,-9.539 7.313,-9.539c0.408,0 0.794,0.048 1.169,0.119c3.646,1.82 5.313,7.354 5.313,12.854c0,9.537 -4.593,9.537 -6.103,9.537ZM60.101,24.44c-1.895,0 -8.077,0.744 -8.077,10.303c0,5.972 3.47,14.245 9.984,14.245c4.557,0 6.867,-3.466 6.867,-10.301c0,-7.091 -2.713,-14.247 -8.774,-14.247Z" style="background-color: red;fill:#987d4d;fill-rule:nonzero;"/><path d="M194.641,71.423c0.124,-0.27 0.192,-0.561 0.192,-0.856c0,-0.418 -0.127,-0.838 -0.392,-1.201c-0.34,-0.465 -0.842,-0.73 -1.372,-0.801c-0.003,-0.003 -0.006,-0.006 -0.008,-0.009c0.539,0.054 1.053,0.308 1.401,0.779c0.271,0.366 0.402,0.792 0.402,1.215c0,0.305 -0.082,0.601 -0.223,0.873ZM192.288,70.888l-0.253,0.187l-0.001,0.001c0,0 -0.003,0.002 -0.005,0.003l-0.019,0.014c-0.001,0.001 -0.003,0.001 -0.005,0.003c-0.002,0.001 -0.004,0.002 -0.006,0.004c0.001,-0.001 0.002,-0.001 0.003,-0.001c-0.031,0.022 -0.082,0.054 -0.117,0.079c-18.065,13.526 -42.822,15.635 -77.895,6.628l-5.333,-1.387c-6.608,-1.729 -12.336,-3.211 -17.345,-3.997c-6.545,11.488 -12.824,14.299 -18.643,15.531c-5.324,1.129 -14.507,0.119 -16.484,-7.399c-0.087,-0.329 -0.039,-0.679 0.134,-0.971c0.173,-0.293 0.455,-0.505 0.785,-0.588l1.639,-0.414c0.341,-0.087 0.702,-0.028 0.998,0.161c0.297,0.189 0.502,0.492 0.567,0.838c0.142,0.757 0.781,1.538 1.797,2.2c1.813,1.178 5.13,2.113 9.005,1.2c4.636,-1.089 9.076,-4.934 13.228,-11.371c-12.898,-1.079 -19.405,0.777 -19.472,0.798c-0.615,0.187 -1.275,-0.112 -1.537,-0.698l-0.394,-0.88c-0.146,-0.327 -0.148,-0.699 -0.006,-1.027c0.142,-0.328 0.416,-0.581 0.754,-0.698c5.833,-2.007 13.653,-2.565 23.918,-1.709c3.977,-8.292 6.596,-17.282 9.998,-31.206c-1.079,0.102 -1.511,0.037 -2.632,-0.195l-1.723,-0.333c-0.428,-0.082 -0.794,-0.38 -0.954,-0.785c-0.061,-0.156 -0.092,-0.32 -0.092,-0.482c0,-0.262 0.079,-0.52 0.236,-0.736l1.731,-2.381c0.24,-0.329 0.623,-0.525 1.031,-0.525c0,0 2.483,0 3.732,0c4.963,-21.237 9.585,-31.075 21.713,-29.46c2.048,0.273 5.937,2.203 8.243,4.536c0.398,0.402 0.483,1.018 0.208,1.513l-0.66,1.19c-0.181,0.326 -0.494,0.556 -0.859,0.631c-0.365,0.074 -0.743,-0.015 -1.037,-0.243c-1.606,-1.249 -4.472,-3.006 -5.817,-3.006c-6.434,0 -8.62,3.765 -13.796,24.561c0.388,-0.002 0.821,-0.007 1.281,-0.014c2.57,-6.892 8.874,-10.475 15.134,-10.475c7.843,0 16.284,5.354 16.284,17.111c0,11.363 -8.389,17.494 -16.284,17.494c-8.124,0 -16.349,-5.878 -16.349,-17.112c0,-0.675 0.034,-1.328 0.089,-1.964c-0.557,0.059 -1.045,0.115 -1.421,0.167c-3.601,14.065 -7.123,23.677 -11.869,32.397c3.494,0.491 6.79,1.185 10.786,2.047c5.011,1.082 11.249,2.428 20.445,3.874c46.436,7.295 63.65,-3.667 65.502,-4.974l0.223,-0.163c0.566,-0.416 1.379,-0.307 1.796,0.259c0.171,0.232 0.254,0.5 0.254,0.765c0,0.382 -0.172,0.756 -0.506,1.002ZM91.585,35.157c0.256,0.649 0.842,1.125 1.526,1.257l0.699,0.135c0.245,0.18 0.524,0.316 0.83,0.375l1.702,0.329c0.072,0.015 0.131,0.025 0.198,0.039c-1.128,4.581 -2.177,8.616 -3.225,12.268c-0.143,-0.032 -0.288,-0.063 -0.441,-0.063l-0.218,0c-0.354,-0.309 -0.804,-0.51 -1.311,-0.51l-2.138,0c-0.044,-0.289 -0.083,-0.725 -0.083,-1.396c0,0 0,-13.644 0,-14.208c0.243,-0.648 1.329,-1.955 2.437,-3.096c0.411,0.405 0.96,0.735 1.699,0.935l-1.444,1.986c-0.252,0.347 -0.378,0.76 -0.378,1.177c0,0.261 0.049,0.523 0.147,0.772ZM91.277,53.824c-3.665,-0.196 -6.031,-0.316 -8.392,-0.316c-2.261,0 -4.695,0.113 -6.679,0.311c-0.357,0.036 -0.714,-0.081 -0.982,-0.323c-0.266,-0.241 -0.419,-0.584 -0.419,-0.944l0,-1.527c0,-0.703 0.57,-1.274 1.275,-1.274l1.145,0c1.353,0 1.716,0 1.716,-2.669l0,-17.046c0,-2.76 -0.135,-2.924 -2.416,-2.924l-1.336,0c-0.704,0 -1.274,-0.57 -1.274,-1.274l0,-1.526c0,-0.644 0.48,-1.186 1.119,-1.264c2.752,-0.338 5.57,-1.334 8.151,-2.882c0.199,-0.118 0.425,-0.181 0.656,-0.181l1.97,0c0.347,0 0.678,0.155 0.918,0.405c0.228,0.238 0.354,0.567 0.354,0.896c0,0.017 -0.122,3.054 -0.191,4.778c2.272,-2.627 5.152,-5.316 7.442,-5.316c2.178,0 4.773,1.049 4.773,6.044c0,2.721 -1.218,3.881 -4.073,3.881c-1.566,0 -3.603,-0.353 -3.783,-3.068c-1.527,1.225 -4.216,4.17 -4.42,5.126c0,0.296 0,14.351 0,14.351c0,2.669 0.364,2.669 1.715,2.669l2.799,0c0.704,0 1.274,0.571 1.274,1.274l0,1.527c0,0.349 -0.144,0.684 -0.397,0.924c-0.254,0.241 -0.596,0.366 -0.945,0.348ZM76.939,28.386l1.148,0c0.047,0.289 0.09,0.784 0.09,1.65l0,1.36c-0.332,-1.081 -0.749,-2.084 -1.238,-3.01ZM78.177,43.742l0,3.34c0,1.219 -0.126,1.682 -0.189,1.843c-0.08,0.023 -0.257,0.062 -0.763,0.062l-1.145,0c-0.218,0 -0.424,0.044 -0.622,0.107c1.152,-1.537 2.094,-3.315 2.719,-5.352ZM60.482,54.59c-8.124,0 -16.349,-5.878 -16.349,-17.112c0,-11.484 8.225,-17.493 16.349,-17.493c7.843,0 16.285,5.354 16.285,17.111c0,11.363 -8.391,17.494 -16.285,17.494ZM42.592,9.698l0,44.25c0,0.635 -0.515,1.149 -1.15,1.149l-3.892,0c-0.386,0 -0.746,-0.193 -0.959,-0.515c0,0 -20.61,-31.155 -24.001,-36.281c0,5.659 0,27.136 0,27.136c0,3.967 0,4.122 3.139,4.386c0.595,0.051 1.053,0.549 1.053,1.146l0,2.128c0,0.34 -0.151,0.663 -0.412,0.882c-0.262,0.218 -0.606,0.31 -0.941,0.25c-1.876,-0.337 -3.864,-0.337 -5.786,-0.337c-2.043,0 -3.972,0 -5.911,0.337c-0.334,0.059 -0.677,-0.034 -0.937,-0.252c-0.259,-0.218 -0.409,-0.54 -0.409,-0.88l0,-2.128c0,-0.597 0.457,-1.095 1.052,-1.146c3.14,-0.264 3.14,-0.419 3.14,-4.386c0,0 0,-35.123 0,-35.814c-1.948,-2.964 -3.022,-4.307 -4.54,-4.307c-0.635,0 -1.15,-0.515 -1.15,-1.15l0,-2.127c0,-0.337 0.148,-0.657 0.404,-0.875c0.256,-0.218 0.595,-0.313 0.927,-0.26c2.126,0.34 4.234,0.34 6.466,0.34c2.232,0 4.34,0 6.465,-0.34c0.447,-0.072 0.893,0.125 1.142,0.502c0,0 16.988,25.793 20.289,30.805c0,-5.409 0,-22.513 0,-22.513c0,-3.967 0,-4.121 -3.14,-4.387c-0.595,-0.049 -1.053,-0.547 -1.053,-1.145l0,-2.127c0,-0.34 0.15,-0.662 0.41,-0.88c0.26,-0.219 0.602,-0.311 0.937,-0.253c1.938,0.338 3.868,0.338 5.91,0.338c1.923,0 3.911,0 5.787,-0.337c0.335,-0.06 0.679,0.031 0.94,0.25c0.261,0.218 0.412,0.541 0.412,0.882l0,2.127c0,0.598 -0.457,1.096 -1.053,1.145c-3.139,0.266 -3.139,0.42 -3.139,4.387ZM140.894,47.082c0,1.219 -0.126,1.683 -0.189,1.843c-0.08,0.023 -0.256,0.062 -0.762,0.062l-1.146,0c-0.151,0 -0.298,0.019 -0.439,0.051c1.057,-1.424 1.924,-3.061 2.536,-4.91l0,2.954ZM151.842,47.591l0,-37.425c0.185,0.054 0.376,0.093 0.578,0.093l0.195,0c0.357,0.313 0.821,0.509 1.334,0.509l0.692,0c0.065,0.282 0.129,0.764 0.129,1.586l0,34.728c0,1.218 -0.125,1.682 -0.189,1.843c-0.08,0.023 -0.256,0.062 -0.761,0.062l-1.135,0l-0.013,0l-0.746,0c-0.045,-0.288 -0.084,-0.72 -0.084,-1.396ZM141.659,47.082l0,-34.728c0,-2.859 -0.499,-2.859 -2.353,-2.859l-0.763,0c-0.703,0 -1.273,-0.571 -1.273,-1.274l0,-1.145c0,-0.619 0.444,-1.148 1.054,-1.255c2.295,-0.402 5.799,-1.466 8.058,-2.721c0.19,-0.105 0.403,-0.161 0.619,-0.161l1.464,0c0.363,0 0.708,0.155 0.949,0.425c0.243,0.27 0.357,0.63 0.317,0.99c-0.184,1.647 -0.184,3.513 -0.184,5.011l0,37.717c0,2.669 0.365,2.669 1.716,2.669l2.557,0c1.351,0 1.715,0 1.715,-2.669l0,-34.728c0,-2.859 -0.499,-2.859 -2.353,-2.859l-0.762,0c-0.703,0 -1.273,-0.571 -1.273,-1.274l0,-1.145c0,-0.619 0.444,-1.148 1.054,-1.255c2.296,-0.402 5.8,-1.466 8.059,-2.721c0.19,-0.105 0.403,-0.161 0.619,-0.161l1.461,0c0.363,0 0.707,0.155 0.949,0.424c0.242,0.27 0.357,0.63 0.318,0.99c-0.183,1.648 -0.183,3.513 -0.183,5.012l0,23.502c2.468,-2.411 6.045,-5.908 6.052,-5.914l0.143,-0.136c0.775,-0.742 1.632,-1.568 1.728,-1.892c-0.077,-0.035 -0.207,-0.079 -0.481,-0.103l-0.638,0c-0.703,0 -1.273,-0.57 -1.273,-1.274l0,-1.526c0,-0.354 0.141,-0.692 0.4,-0.933c0.26,-0.241 0.601,-0.364 0.954,-0.338l1.623,0.118l4.085,0.197l4.586,-0.215l1.437,-0.1c0.353,-0.025 0.697,0.099 0.955,0.339c0.258,0.241 0.401,0.579 0.401,0.932l0,1.526c0,0.704 -0.57,1.274 -1.274,1.274l-1.398,0c-1.302,0 -1.895,0 -5.043,2.961c0,0 -5.375,5.065 -6.787,6.395c1.418,1.571 9.783,10.838 9.783,10.838c4.299,4.735 4.541,4.735 6.117,4.735c0.338,0 0.662,0.135 0.902,0.374c0.238,0.239 0.373,0.563 0.372,0.901l-0.001,1.527c0,0.351 -0.14,0.687 -0.396,0.927c-0.256,0.241 -0.594,0.365 -0.945,0.344l-2.21,-0.136l-4.146,-0.18l-4.003,0.179l-2.161,0.137c-0.351,0.022 -0.69,-0.102 -0.947,-0.343c-0.256,-0.241 -0.395,-0.578 -0.395,-0.929l0,-1.527c0,-0.703 0.57,-1.274 1.273,-1.274c0.168,0 0.376,0 0.563,-0.008c-0.485,-0.707 -1.687,-2.055 -2.201,-2.626l-7.075,-7.699l0,7.664c0,2.669 0.364,2.669 1.716,2.669l1.147,0c0.337,0 0.662,0.135 0.901,0.374c0.239,0.239 0.373,0.564 0.372,0.902l-0.002,1.526c0,0.352 -0.143,0.687 -0.398,0.928c-0.256,0.24 -0.598,0.364 -0.949,0.343l-1.634,-0.102l-5.097,-0.214l-5.09,0.213l-1.645,0.103c-0.031,0.002 -0.059,-0.013 -0.089,-0.013c-0.028,0 -0.054,0.012 -0.081,0.01c-2.349,-0.205 -4.76,-0.313 -6.973,-0.313c-2.26,0 -4.694,0.113 -6.678,0.311c-0.358,0.036 -0.715,-0.081 -0.981,-0.323c-0.268,-0.241 -0.419,-0.584 -0.419,-0.944l0,-1.527c0,-0.703 0.57,-1.274 1.273,-1.274l1.146,0c1.351,0 1.716,0 1.716,-2.669ZM194.689,69.166c-0.43,-0.582 -1.121,-0.854 -1.802,-0.8c-0.708,-0.636 -1.807,-0.7 -2.601,-0.116l-0.197,0.145c-1.784,1.263 -18.749,12.108 -64.951,4.848c-9.176,-1.441 -15.401,-2.785 -20.404,-3.865c-2.963,-0.639 -5.537,-1.186 -8.098,-1.631c3.876,-7.363 6.942,-15.467 9.947,-26.332c1.327,7.182 6.259,11.667 11.941,13.27c2.026,0.78 4.186,1.178 6.342,1.178c4.258,0 8.646,-1.712 11.908,-4.981c-0.004,0.048 -0.015,0.094 -0.015,0.143l0,1.527c0,0.575 0.243,1.124 0.67,1.511c0.42,0.379 0.978,0.564 1.54,0.517c0.426,0.38 0.99,0.566 1.56,0.509c1.951,-0.195 4.357,-0.308 6.603,-0.308c2.199,0 4.587,0.108 6.906,0.31c0.039,0.004 0.078,-0.003 0.117,-0.002c0.054,0.001 0.108,0.01 0.164,0.007l1.647,-0.102l5.042,-0.213l5.048,0.213l1.641,0.102c0.56,0.035 1.106,-0.164 1.515,-0.549c0.41,-0.384 0.638,-0.922 0.639,-1.484l0.002,-1.526c0.001,-0.541 -0.214,-1.06 -0.596,-1.443c-0.383,-0.383 -0.901,-0.597 -1.442,-0.597l-0.193,0c-0.372,-0.323 -0.841,-0.51 -1.335,-0.51l-0.486,0c-0.045,-0.288 -0.083,-0.725 -0.083,-1.396l0,-4.546l4.218,4.59c0.3,0.332 0.869,0.968 1.374,1.565c-0.701,0.332 -1.211,1.022 -1.211,1.825l0,1.527c0,0.563 0.224,1.101 0.634,1.486c0.41,0.385 0.953,0.585 1.514,0.549l0.062,-0.004c0.404,0.359 0.926,0.547 1.468,0.513l2.172,-0.137l3.949,-0.178l4.099,0.179l2.217,0.136c0.561,0.035 1.103,-0.164 1.512,-0.549c0.41,-0.385 0.634,-0.923 0.634,-1.485l0.001,-1.527c0,-0.541 -0.215,-1.059 -0.597,-1.441c-0.382,-0.383 -0.9,-0.597 -1.441,-0.597c-0.069,0 -0.132,-0.001 -0.196,-0.001c-0.369,-0.322 -0.839,-0.509 -1.333,-0.509c-0.049,0 -0.095,0 -0.142,0c-0.716,-0.541 -1.775,-1.656 -3.88,-3.974c0,0 -6.437,-7.131 -9.281,-10.282c1.912,-1.801 6.244,-5.883 6.244,-5.883c2.925,-2.752 3.39,-2.752 4.517,-2.752l1.4,0c1.126,0 2.038,-0.912 2.038,-2.038l0,-1.527c0,-0.565 -0.23,-1.105 -0.643,-1.49c-0.413,-0.386 -0.963,-0.583 -1.527,-0.543l-0.042,0.002c-0.409,-0.362 -0.94,-0.55 -1.486,-0.512l-1.444,0.1l-4.531,0.214l-4.026,-0.195l-1.632,-0.119c-0.566,-0.041 -1.113,0.155 -1.528,0.541c-0.415,0.385 -0.641,0.927 -0.641,1.493l0,1.526c0,0.997 0.729,1.788 1.675,1.965c-0.247,0.244 -0.514,0.502 -0.775,0.752l-0.142,0.136c-0.007,0.006 -1.505,1.47 -3.23,3.156l0,-19.683c0,-1.48 0,-3.321 0.178,-4.926c0.009,-0.075 0.013,-0.15 0.013,-0.225c0,-0.499 -0.184,-0.984 -0.52,-1.359c-0.387,-0.432 -0.938,-0.679 -1.518,-0.679l-0.199,0c-0.369,-0.321 -0.838,-0.51 -1.332,-0.51l-1.461,0c-0.346,0 -0.687,0.089 -0.99,0.257c-1.897,1.054 -5.259,2.188 -7.82,2.636c-0.022,0.004 -0.04,0.013 -0.062,0.017c0.005,-0.045 0.007,-0.094 0.012,-0.138c0.009,-0.075 0.013,-0.15 0.013,-0.224c0,-0.499 -0.184,-0.984 -0.52,-1.36c-0.387,-0.431 -0.939,-0.678 -1.518,-0.678l-0.198,0c-0.368,-0.321 -0.836,-0.51 -1.331,-0.51l-1.464,0c-0.346,0 -0.687,0.089 -0.99,0.257c-1.897,1.054 -5.259,2.188 -7.819,2.636c-0.976,0.171 -1.687,1.018 -1.687,2.008l0,1.145c0,1.125 0.912,2.038 2.038,2.038l0.196,0c0.357,0.313 0.821,0.509 1.334,0.509l0.692,0c0.065,0.282 0.129,0.764 0.129,1.586l0,18.623c-1.912,-5.768 -6.306,-9.218 -11.152,-10.576c-2.066,-0.786 -4.254,-1.18 -6.404,-1.18c-4.574,0 -9.167,1.827 -12.44,5.374c4.183,-15.462 6.406,-17.409 11.35,-17.409c0.032,0 0.077,0.014 0.11,0.016c1.16,0.551 2.594,1.454 3.709,2.32c0.399,0.311 0.898,0.449 1.397,0.413c0.043,0.032 0.09,0.064 0.132,0.097c0.471,0.365 1.078,0.507 1.661,0.387c0.583,-0.12 1.086,-0.488 1.374,-1.01l0.658,-1.191c0.437,-0.79 0.301,-1.775 -0.333,-2.418c-1.959,-1.983 -5.418,-3.964 -7.876,-4.586c-0.853,-0.342 -1.66,-0.589 -2.338,-0.679c-10.935,-1.457 -16.118,6.217 -20.538,22.089c-0.92,-1.332 -2.208,-1.849 -3.259,-2.034c-0.965,-0.498 -1.957,-0.606 -2.611,-0.606c-1.553,0 -3.285,1.013 -4.983,2.48c0.014,-0.344 0.023,-0.569 0.023,-0.569c0.001,-0.027 0.002,-0.055 0.002,-0.083c0,-0.527 -0.202,-1.052 -0.567,-1.433c-0.384,-0.4 -0.914,-0.648 -1.469,-0.648l-0.22,0c-0.367,-0.314 -0.825,-0.51 -1.309,-0.51l-1.97,0c-0.369,0 -0.732,0.1 -1.049,0.29c-2.49,1.493 -5.205,2.454 -7.851,2.778c-0.829,0.102 -1.483,0.695 -1.703,1.463c-1.873,-1.595 -4.057,-2.698 -6.344,-3.339c-2.068,-0.791 -4.259,-1.192 -6.412,-1.192c-6.743,0 -13.532,3.959 -16.062,11.568l0,-20.582c0,-1.23 0,-2.758 0.211,-3.063c0.036,-0.033 0.366,-0.29 2.115,-0.438c1.055,-0.089 1.866,-0.972 1.866,-2.031l0,-2.127c0,-0.604 -0.268,-1.176 -0.731,-1.564c-0.249,-0.208 -0.541,-0.345 -0.85,-0.416c-0.031,-0.029 -0.055,-0.065 -0.089,-0.092c-0.462,-0.388 -1.073,-0.55 -1.667,-0.444c-1.798,0.323 -3.746,0.323 -5.63,0.323c-2.003,0 -3.895,0 -5.758,-0.324c-0.593,-0.104 -1.2,0.06 -1.661,0.447c-0.461,0.388 -0.726,0.959 -0.726,1.561l0,2.127c0,0.959 0.667,1.767 1.575,1.978c0.326,0.311 0.75,0.521 1.23,0.562c0.554,0.047 0.953,0.105 1.258,0.163c0.127,0.548 0.129,1.791 0.129,2.829c0,0 0,11.199 0,18.632c-5.631,-8.55 -17.719,-26.903 -17.719,-26.903c-0.291,-0.442 -0.741,-0.726 -1.237,-0.844c-0.454,-0.439 -1.085,-0.66 -1.726,-0.557c-2.055,0.329 -4.129,0.329 -6.325,0.329c-2.195,0 -4.269,0 -6.326,-0.329c-0.589,-0.094 -1.19,0.075 -1.644,0.462c-0.454,0.387 -0.715,0.954 -0.715,1.551l0,2.127c0,0.964 0.671,1.768 1.57,1.979c0.367,0.351 0.86,0.568 1.406,0.568c0.096,0 0.191,0.022 0.286,0.042c0.676,0.581 1.426,1.622 2.427,3.138c0,1.2 0,35.544 0,35.544c0,1.23 -0.001,2.759 -0.211,3.063c-0.037,0.034 -0.367,0.291 -2.114,0.438c-1.055,0.089 -1.867,0.972 -1.867,2.031l0,2.128c0,0.602 0.266,1.173 0.727,1.56c0.249,0.21 0.542,0.347 0.851,0.419c0.031,0.029 0.055,0.064 0.087,0.091c0.461,0.387 1.069,0.551 1.662,0.448c1.863,-0.325 3.755,-0.325 5.759,-0.325c1.883,0 3.83,0 5.627,0.323c0.594,0.107 1.205,-0.055 1.668,-0.443c0.463,-0.387 0.731,-0.96 0.731,-1.563l0,-2.129c0,-0.958 -0.667,-1.766 -1.575,-1.978c-0.325,-0.311 -0.75,-0.521 -1.23,-0.562c-0.554,-0.047 -0.954,-0.105 -1.259,-0.163c-0.127,-0.548 -0.128,-1.79 -0.128,-2.827c0,0 0,-14.908 0,-23.275c6.161,9.313 21.433,32.399 21.433,32.399c0.29,0.438 0.735,0.739 1.235,0.856c0.375,0.358 0.874,0.568 1.404,0.568l3.893,0c1.125,0 2.038,-0.913 2.038,-2.038l0,-10.431c1.912,5.63 6.252,9.212 11.175,10.626c2.048,0.799 4.234,1.21 6.415,1.21c4.328,0 8.785,-1.771 12.062,-5.145c-0.015,0.101 -0.031,0.202 -0.031,0.307l0,1.527c0,0.575 0.244,1.124 0.67,1.511c0.419,0.379 0.978,0.564 1.541,0.517c0.426,0.38 0.992,0.566 1.56,0.509c1.95,-0.195 4.356,-0.308 6.602,-0.308c2.072,0 4.199,0.095 7.225,0.255c-1.375,4.228 -2.819,7.981 -4.51,11.563c-10.108,-0.8 -17.868,-0.223 -23.695,1.782c-0.541,0.186 -0.978,0.592 -1.206,1.117c-0.228,0.524 -0.225,1.121 0.009,1.643l0.394,0.88c0.36,0.804 1.19,1.266 2.038,1.193c0.518,0.459 1.249,0.645 1.948,0.434c0.06,-0.018 5.447,-1.533 16.094,-0.977c-3.748,5.376 -7.698,8.606 -11.776,9.566c-2.171,0.511 -4.163,0.386 -5.765,-0.012c-0.421,-0.181 -0.807,-0.373 -1.118,-0.576c-0.817,-0.531 -1.365,-1.167 -1.466,-1.701c-0.104,-0.553 -0.432,-1.037 -0.905,-1.34c-0.381,-0.243 -0.827,-0.344 -1.271,-0.306c-0.081,-0.073 -0.164,-0.145 -0.257,-0.204c-0.474,-0.303 -1.052,-0.396 -1.597,-0.259l-1.639,0.415c-0.527,0.133 -0.979,0.472 -1.256,0.94c-0.276,0.469 -0.354,1.028 -0.216,1.555c1.142,4.34 4.495,6.647 8.217,7.673c3.545,1.387 7.699,1.423 10.694,0.787c5.911,-1.252 12.276,-4.098 18.868,-15.436c4.851,0.799 10.382,2.225 16.746,3.89l5.36,1.394c35.261,9.054 60.199,6.921 78.455,-6.698c0.058,-0.04 0.136,-0.09 0.187,-0.127c-0.001,0.001 -0.002,0.001 -0.004,0.001c0.005,-0.004 0.011,-0.005 0.016,-0.009l0.274,-0.204c-0.001,0.001 -0.001,0.001 -0.002,0.001c0.01,-0.007 0.042,-0.031 0.042,-0.031c0.53,-0.394 0.802,-0.988 0.802,-1.594c0,-0.426 -0.135,-0.858 -0.411,-1.23Z" style="fill:#987d4d;fill-rule:nonzero;"/><path d="M126.941,33.156c0.405,-0.391 0.62,-0.92 0.62,-1.459c0,-0.272 -0.056,-0.548 -0.168,-0.809c-0.335,-0.779 -1.122,-1.264 -1.969,-1.226c-0.007,0.001 -0.049,0.002 -0.107,0.005c-0.388,-0.336 -0.885,-0.539 -1.42,-0.515c-0.06,0.003 -2.444,0.11 -5.509,0.23c1.745,-3.315 4.886,-3.668 6.097,-3.668c0.407,0 0.792,0.048 1.166,0.118c3.648,1.82 5.316,7.355 5.316,12.855c0,9.537 -4.593,9.537 -6.102,9.537c-0.471,0 -0.917,-0.064 -1.353,-0.155c-3.92,-1.89 -6.085,-7.479 -6.312,-12.027c2.915,-0.221 5.525,-0.395 6.445,-0.429c0.501,-0.018 0.93,-0.176 1.291,-0.524l2.005,-1.933ZM122.894,34.013c-0.226,0.217 -0.494,0.316 -0.808,0.327c-0.999,0.036 -3.987,0.239 -7.205,0.488c0.033,5.965 3.498,14.16 9.984,14.16c4.556,0 6.867,-3.466 6.867,-10.301c0,-7.091 -2.714,-14.247 -8.777,-14.247c-1.541,0 -5.916,0.493 -7.497,5.816c4.356,-0.155 8.395,-0.337 8.473,-0.34c0.529,-0.024 1.022,0.279 1.231,0.766c0.07,0.164 0.104,0.336 0.104,0.506c0,0.337 -0.134,0.667 -0.388,0.912l-1.984,1.913Z" style="fill:#987d4d;fill-rule:nonzero;"/><path d="M191.827,67.035l0,-1.683l3.332,0.664l-0.404,-1.445l3.998,-2.817l-1.455,-0.683l0.677,-2.271l-2.052,0.382l-0.427,-1.208l-2.2,2.11l1.062,-4.433l-1.418,0.679c0,0 -1.24,-2.33 -1.292,-2.434c-0.052,0.104 -1.292,2.434 -1.292,2.434l-1.417,-0.679l1.058,4.433l-2.2,-2.11l-0.426,1.208l-2.051,-0.382l0.676,2.271l-1.456,0.683l3.998,2.817l-0.403,1.445l3.36,-0.664l-0.003,1.683l0.335,0Z" style="fill:#987d4d;fill-rule:nonzero;"/><path d="M50.75,34.743c0,-10.431 6.997,-11.577 9.351,-11.577c6.868,0 10.048,7.57 10.048,15.521c0,10.429 -5.215,11.575 -8.141,11.575c-7.441,0 -11.258,-8.968 -11.258,-15.519ZM75.493,37.096c0,-11.258 -8.015,-15.837 -15.011,-15.837c-8.078,0 -15.075,5.978 -15.075,16.219c0,11.257 8.396,15.838 15.075,15.838c7.506,0 15.011,-5.98 15.011,-16.22Z" style="fill:#065b4a;fill-rule:nonzero;"/><path d="M80.215,30.036l0,17.046c0,3.308 -0.827,3.943 -2.99,3.943l-1.145,0l0,1.527c1.908,-0.191 4.389,-0.318 6.805,-0.318c2.418,0 4.898,0.127 8.46,0.318l0,-1.527l-2.799,0c-2.162,0 -2.988,-0.635 -2.988,-3.943l0,-14.502c0.253,-1.781 5.214,-6.742 6.232,-6.742c0.636,0 0.7,0.954 0.7,1.399c0,1.654 0.7,2.162 2.544,2.162c2.163,0 2.799,-0.572 2.799,-2.607c0,-2.48 -0.636,-4.77 -3.499,-4.77c-2.672,0 -7.124,5.534 -8.65,7.569l-0.126,0l0,-2.035c0,-2.163 0.126,-4.263 0.253,-6.297l-1.97,0c-2.547,1.527 -5.535,2.671 -8.652,3.053l0,1.526l1.336,0c3.244,0 3.69,1.018 3.69,4.198Z" style="fill:#065b4a;fill-rule:nonzero;"/><path d="M142.932,12.354l0,34.728c0,3.308 -0.828,3.943 -2.989,3.943l-1.146,0l0,1.527c1.909,-0.191 4.39,-0.318 6.805,-0.318c2.412,0 4.89,0.127 7.07,0.317l0,0.001c0.002,0 0.005,-0.001 0.007,-0.001c0.002,0.001 0.004,0.001 0.006,0.001l0,-0.001c2.225,-0.128 4.383,-0.317 6.795,-0.317c2.416,0 4.58,0.19 6.805,0.318l0.002,-1.527l-1.147,0c-2.162,0 -2.989,-0.635 -2.989,-3.943l0,-10.931l9.286,10.104c1.717,1.908 2.734,3.117 2.734,3.626c0,1.144 -0.953,1.144 -2.034,1.144l0,1.527c2.354,-0.128 4.134,-0.318 6.233,-0.318c2.162,0 4.006,0.19 6.423,0.318l0.001,-1.527c-2.163,0 -2.672,-0.318 -7.06,-5.152l-10.621,-11.767l7.695,-7.25c3.244,-3.052 4.133,-3.308 5.916,-3.308l1.398,0l0,-1.526c-1.97,0.126 -3.944,0.318 -6.105,0.318c-2.227,0 -3.816,-0.192 -5.789,-0.318l0,1.526l0.638,0c0.827,0.064 1.78,0.318 1.78,1.336c0,0.827 -0.827,1.59 -2.289,2.99l-8.206,8.019l0,-26.528c0,-1.527 0,-3.434 0.189,-5.152l-1.461,0c-2.289,1.272 -5.914,2.417 -8.459,2.863l0,1.145l0.762,0c2.609,0 3.626,0.635 3.626,4.133l0,34.728c0,3.308 -0.826,3.943 -2.988,3.943l-1.135,0l-0.013,0l-1.409,0c-2.161,0 -2.989,-0.635 -2.989,-3.943l0,-37.717c0,-1.527 0,-3.434 0.191,-5.152l-1.464,0c-2.289,1.272 -5.913,2.417 -8.458,2.863l0,1.145l0.763,0c2.608,0 3.626,0.635 3.626,4.133Z" style="fill:#065b4a;fill-rule:nonzero;"/><path d="M191.267,70.059c0.159,-0.115 0.241,-0.178 0.241,-0.178c-0.08,0.06 -0.162,0.118 -0.241,0.178Z" style="fill:#065b4a;fill-rule:nonzero;"/><path d="M122.955,23.166c6.871,0 10.05,7.57 10.05,15.521c0,10.429 -5.215,11.575 -8.14,11.575c-7.443,0 -11.26,-8.968 -11.26,-15.519c0,-0.387 0.028,-0.736 0.047,-1.098c3.729,-0.295 7.388,-0.541 8.388,-0.578c0.33,-0.297 1.949,-1.879 1.949,-1.879c0,0 -5.139,0.233 -10.125,0.398c1.264,-7.501 7.002,-8.42 9.091,-8.42ZM124.822,75.257c-17.725,-2.785 -24.334,-5.168 -33.033,-6.166c4.757,-8.36 8.578,-17.672 12.846,-34.534c0.562,-0.127 2.039,-0.295 3.912,-0.474c-0.18,1.074 -0.284,2.203 -0.284,3.395c0,11.257 8.396,15.838 15.075,15.838c7.505,0 15.011,-5.98 15.011,-16.22c0,-11.258 -8.015,-15.837 -15.011,-15.837c-6.414,0 -12.132,3.781 -14.222,10.46c-1.662,0.033 -3.04,0.043 -3.819,0.009c5.477,-22.254 7.835,-27.089 15.422,-27.089c2.393,0 6.599,3.275 6.599,3.275l0.66,-1.191c-2.061,-2.084 -5.707,-3.929 -7.505,-4.168c-10.854,-1.446 -15.342,6.922 -20.538,29.471l-4.739,0l-1.731,2.381c3.381,0.595 2.428,0.743 5.811,0.298c-3.606,14.9 -6.374,24.855 -10.9,34.044l-0.786,-0.079c-11.011,-0.929 -18.324,-0.14 -23.492,1.639l0.394,0.88c0,0 7.204,-2.23 22.05,-0.684c-4,6.74 -9.032,12.279 -15.14,13.716c-6.048,1.424 -11.746,-1.217 -12.346,-4.406l-1.639,0.415c1.687,6.417 9.803,7.576 14.988,6.477c5.58,-1.182 11.66,-3.682 18.267,-15.689c6.548,0.94 14.249,3.144 23.634,5.554c39.348,10.105 61.901,4.835 76.961,-6.513c-2.187,1.546 -19.699,12.543 -66.445,5.198Z" style="fill:#065b4a;fill-rule:nonzero;"/><path d="M45.635,2.039c-1.977,0.354 -4.013,0.354 -5.99,0.354c-2.036,0 -4.071,0 -6.107,-0.354l0,2.127c4.192,0.354 4.192,1.489 4.192,5.532l0,26.167l-0.119,0l-22.279,-33.826c-2.215,0.354 -4.431,0.354 -6.647,0.354c-2.216,0 -4.431,0 -6.647,-0.354l0,2.127c2.275,0 3.652,1.985 5.689,5.105l0,36.166c0,4.043 0,5.178 -4.192,5.532l0,2.128c2.036,-0.355 4.072,-0.355 6.108,-0.355c1.977,0 4.013,0 5.989,0.355l0,-2.128c-4.192,-0.354 -4.192,-1.489 -4.192,-5.532l0,-30.776l0.12,0l25.99,39.287l3.892,0l0,-44.25c0,-4.043 0,-5.178 4.193,-5.532l0,-2.127Z" style="fill:#065b4a;fill-rule:nonzero;"/></g></svg>
